<svg width="25" height="24" viewBox="0 0 25 24" fill="none" xmlns="http://www.w3.org/2000/svg">
<g id="Google__G__Logo (1) 1" clip-path="url(#clip0_1_589)">
<g id="Group">
<path id="Vector" d="M24.245 12.27C24.245 11.48 24.175 10.73 24.055 10H12.755V14.51H19.225C18.935 15.99 18.085 17.24 16.825 18.09V21.09H20.685C22.945 19 24.245 15.92 24.245 12.27Z" fill="#4285F4"/>
<path id="Vector_2" d="M12.755 24C15.995 24 18.705 22.92 20.685 21.09L16.825 18.09C15.745 18.81 14.375 19.25 12.755 19.25C9.62501 19.25 6.97501 17.14 6.02501 14.29H2.04501V17.38C4.01501 21.3 8.06501 24 12.755 24Z" fill="#34A853"/>
<path id="Vector_3" d="M6.02501 14.29C5.77501 13.57 5.645 12.8 5.645 12C5.645 11.2 5.78501 10.43 6.02501 9.71V6.62H2.045C1.225 8.24 0.755005 10.06 0.755005 12C0.755005 13.94 1.225 15.76 2.045 17.38L6.02501 14.29Z" fill="#FBBC05"/>
<path id="Vector_4" d="M12.755 4.75C14.525 4.75 16.105 5.36 17.355 6.55L20.775 3.13C18.705 1.19 15.995 0 12.755 0C8.06501 0 4.01501 2.7 2.04501 6.62L6.02501 9.71C6.97501 6.86 9.62501 4.75 12.755 4.75Z" fill="#EA4335"/>
</g>
</g>
<defs>
<clipPath id="clip0_1_589">
<rect width="24" height="24" fill="white" transform="translate(0.5)"/>
</clipPath>
</defs>
</svg>
